<?xml version="1.0" standalone="no"?>
<!DOCTYPE svg PUBLIC "-//W3C//DTD SVG 20010904//EN"
 "http://www.w3.org/TR/2001/REC-SVG-20010904/DTD/svg10.dtd">
<svg version="1.0" xmlns="http://www.w3.org/2000/svg"
 width="1280.000000pt" height="1280.000000pt" viewBox="0 0 1280.000000 1280.000000"
 preserveAspectRatio="xMidYMid meet">
<metadata>
Created by potrace 1.15, written by Peter Selinger 2001-2017
</metadata>
<g transform="translate(0.000000,1280.000000) scale(0.100000,-0.100000)"
fill="#000000" stroke="none">
<path d="M1540 12210 c0 -380 3 -580 10 -580 7 0 10 200 10 580 0 380 -3 580
-10 580 -7 0 -10 -200 -10 -580z"/>
<path d="M11240 12210 c0 -380 3 -580 10 -580 7 0 10 200 10 580 0 380 -3 580
-10 580 -7 0 -10 -200 -10 -580z"/>
<path d="M10 11250 c0 -7 200 -10 580 -10 380 0 580 3 580 10 0 7 -200 10
-580 10 -380 0 -580 -3 -580 -10z"/>
<path d="M11630 11250 c0 -7 200 -10 580 -10 380 0 580 3 580 10 0 7 -200 10
-580 10 -380 0 -580 -3 -580 -10z"/>
<path d="M4790 9107 c-97 -27 -155 -60 -220 -127 -133 -138 -197 -351 -156
-523 17 -72 53 -152 93 -205 30 -40 11 -42 301 28 246 60 368 95 574 163 l157
51 7 46 c11 73 -11 175 -61 275 -80 162 -156 234 -301 287 -92 33 -281 36
-394 5z"/>
<path d="M5870 8469 c-78 -13 -169 -35 -374 -90 -98 -27 -208 -54 -245 -60
-74 -13 -260 -57 -916 -219 -247 -61 -540 -133 -650 -160 -495 -121 -1265
-311 -1313 -324 -71 -20 -174 -78 -208 -118 -15 -18 -39 -58 -53 -88 -22 -46
-26 -69 -25 -140 0 -100 24 -160 82 -212 44 -38 151 -88 190 -88 15 0 131 25
258 55 126 30 344 82 484 116 140 33 318 76 395 94 77 19 291 70 475 114 184
44 496 118 693 165 258 62 375 86 422 86 71 0 78 -8 45 -50 -11 -14 -20 -29
-20 -34 0 -4 -310 -396 -688 -870 -756 -945 -838 -1051 -884 -1145 -73 -146
-18 -301 146 -410 34 -23 48 -25 135 -26 87 0 101 3 156 30 58 29 78 53 885
1055 454 564 833 1026 842 1028 19 4 1188 -883 1188 -901 -1 -7 27 -412 62
-901 l62 -889 48 -76 48 -75 273 -144 c1259 -665 1565 -824 1604 -834 54 -13
184 3 248 31 72 32 130 115 160 230 15 60 15 65 -5 126 -22 67 -64 137 -102
171 -13 12 -291 156 -618 322 -327 165 -696 358 -820 429 l-225 128 -12 130
c-40 437 -86 1108 -99 1450 l-7 171 33 32 c45 46 87 65 123 58 16 -3 210 -65
431 -137 221 -72 496 -161 611 -199 116 -37 302 -99 415 -136 187 -62 212 -68
290 -68 92 -1 132 14 197 71 18 15 285 426 593 912 l560 885 0 90 c0 71 -4 99
-21 133 -27 55 -92 122 -154 158 -42 25 -59 29 -129 29 -68 0 -91 -4 -141 -27
-33 -16 -70 -38 -83 -50 -13 -12 -230 -346 -482 -742 -337 -528 -468 -725
-491 -740 l-32 -21 -711 225 -711 224 -818 616 -819 616 -122 2 c-66 1 -146
-3 -176 -8z"/>
<path d="M8037 3251 c-8 -222 -25 -321 -62 -345 -22 -14 -308 -16 -2980 -16
l-2955 0 0 -59 0 -59 2042 -6 c1124 -4 3040 -6 4258 -4 l2214 3 8 37 c4 21 3
49 -2 63 l-10 25 -950 0 -950 0 -19 38 c-35 69 -44 126 -50 317 l-6 190 -266
3 -266 2 -6 -189z"/>
<path d="M10 1550 c0 -7 200 -10 580 -10 380 0 580 3 580 10 0 7 -200 10 -580
10 -380 0 -580 -3 -580 -10z"/>
<path d="M11630 1550 c0 -7 200 -10 580 -10 380 0 580 3 580 10 0 7 -200 10
-580 10 -380 0 -580 -3 -580 -10z"/>
<path d="M1540 590 c0 -380 3 -580 10 -580 7 0 10 200 10 580 0 380 -3 580
-10 580 -7 0 -10 -200 -10 -580z"/>
<path d="M11240 590 c0 -380 3 -580 10 -580 7 0 10 200 10 580 0 380 -3 580
-10 580 -7 0 -10 -200 -10 -580z"/>
</g>
</svg>
